<svg width="344" height="280" viewBox="0 0 344 280" fill="none" xmlns="http://www.w3.org/2000/svg">
<g clip-path="url(#clip0_2_2009)">
<path opacity="0.07" d="M312.652 144.756C312.652 146.621 312.611 148.486 312.486 150.226C330.293 163.778 344 192.828 344 218.398C344 246.247 327.726 259.383 307.641 247.78C307.6 247.738 307.558 247.738 307.517 247.697L181.338 174.884C181.297 174.842 181.255 174.842 181.172 174.801C158.603 161.747 140.3 125.817 140.3 94.5284C140.3 65.2289 156.367 50.3516 176.949 59.3443C179.475 39.2452 192.933 30.5839 209.166 39.9912C216.952 44.5083 224.116 52.4236 229.706 61.9555C237.822 49.8957 251.654 46.829 267.307 55.8633C292.361 70.2853 312.652 110.11 312.652 144.756Z" fill="url(#paint0_linear_2_2009)"/>
<path opacity="0.4" d="M291.947 164.648C291.947 166.513 291.905 168.378 291.781 170.118C309.588 183.67 323.295 212.72 323.295 238.29C323.295 266.139 307.02 279.276 286.936 267.672C286.895 267.631 286.853 267.631 286.812 267.589L160.633 194.776C160.592 194.735 160.55 194.735 160.467 194.693C137.898 181.639 119.595 145.709 119.595 114.42C119.595 85.1214 135.662 70.2436 156.244 79.2368C158.769 59.1371 172.228 50.476 188.461 59.8835C196.247 64.4007 203.41 72.3156 209.001 81.8474C217.117 69.7879 230.949 66.7211 246.602 75.7556C271.656 90.1772 291.947 130.003 291.947 164.648Z" fill="url(#paint1_linear_2_2009)"/>
<path opacity="0.2" d="M92.1805 200.122L72.9663 189.016V182.509L92.1805 193.616C93.7546 194.528 96.0321 196.351 97.9782 199.169C100.09 202.194 101.581 206.007 101.581 210.151C101.581 214.71 100.422 217.32 98.1854 218.066C96.1145 218.771 93.6716 217.569 92.1393 216.699L84.2296 212.14L84.1884 212.099C83.5256 211.684 82.4489 211.312 81.5795 211.56C80.8755 211.767 80.0885 212.472 80.0885 214.999C80.0885 217.528 80.8755 219.102 81.5383 220.014C82.3665 221.174 83.4432 222.003 84.1054 222.335L84.1884 222.376L108.331 236.342V242.849L84.3126 228.965C82.6562 228.095 80.2957 226.272 78.2254 223.371C75.9891 220.221 74.4156 216.201 74.4568 211.726C74.4568 207.292 75.9891 205.012 78.2254 204.39C80.2957 203.811 82.6562 204.639 84.3126 205.675L92.1393 210.193C93.2572 210.855 94.1272 211.146 94.6652 210.938C95.0796 210.814 95.9079 210.193 95.9079 206.877C95.9079 204.764 95.2038 203.354 94.5828 202.401C93.837 201.324 92.8022 200.495 92.1805 200.122Z" fill="white"/>
<path d="M77.1075 187.399C77.1075 192.745 73.96 195.274 70.109 193.077C66.2575 190.839 63.1105 184.706 63.1105 179.318C63.1105 173.972 66.2575 171.444 70.109 173.641C73.96 175.878 77.1075 182.053 77.1075 187.399Z" fill="url(#paint2_linear_2_2009)"/>
<path d="M118.104 245.004C118.104 250.35 114.957 252.877 111.106 250.681C107.254 248.443 104.107 242.31 104.107 236.922C104.107 231.576 107.254 229.048 111.106 231.245C114.957 233.483 118.104 239.658 118.104 245.004Z" fill="url(#paint3_linear_2_2009)"/>
<path opacity="0.07" d="M151.191 107.334L275.382 179.069V244.838L151.149 173.102L151.191 107.334Z" fill="url(#paint4_linear_2_2009)"/>
<path opacity="0.3" d="M134.585 115.622L258.776 187.358V253.126L134.585 181.39V115.622Z" fill="url(#paint5_linear_2_2009)"/>
<path d="M145.724 154.785C145.724 160.089 148.871 166.182 152.723 168.419C156.574 170.657 159.721 168.171 159.721 162.866C159.721 157.562 156.574 151.47 152.723 149.232C148.871 146.994 145.724 149.48 145.724 154.785Z" fill="url(#paint6_linear_2_2009)"/>
<path opacity="0.15" d="M163.242 165.021C163.242 167.466 164.691 170.326 166.514 171.362C168.294 172.398 169.744 171.238 169.744 168.792C169.744 166.347 168.294 163.488 166.472 162.452C164.691 161.416 163.242 162.576 163.242 165.021Z" fill="white"/>
<path opacity="0.15" d="M173.222 170.781C173.222 173.226 174.671 176.086 176.493 177.122C178.274 178.158 179.724 176.997 179.724 174.552C179.724 172.108 178.274 169.248 176.452 168.212C174.671 167.176 173.222 168.336 173.222 170.781Z" fill="white"/>
<path opacity="0.15" d="M227.428 181.97V219.392L222.542 216.575V179.152L227.428 181.97Z" fill="white"/>
<path opacity="0.15" d="M238.112 188.187V225.608L233.226 222.791V185.368L238.112 188.187Z" fill="white"/>
<path opacity="0.15" d="M248.837 194.403V231.825L243.951 229.007V191.585L248.837 194.403Z" fill="white"/>
<path opacity="0.07" d="M151.149 197.221L275.341 268.956V334.725L151.149 262.989V197.221Z" fill="url(#paint7_linear_2_2009)"/>
<path opacity="0.3" d="M134.585 205.924L258.776 277.66V343.428L134.585 271.692V205.924Z" fill="url(#paint8_linear_2_2009)"/>
<path d="M145.724 245.086C145.724 250.391 148.871 256.483 152.723 258.721C156.574 260.959 159.721 258.472 159.721 253.167C159.721 247.863 156.574 241.771 152.723 239.533C148.871 237.295 145.724 239.782 145.724 245.086Z" fill="url(#paint9_linear_2_2009)"/>
<path opacity="0.15" d="M163.242 255.364C163.242 257.809 164.691 260.668 166.514 261.704C168.294 262.74 169.744 261.58 169.744 259.135C169.744 256.69 168.294 253.831 166.472 252.795C164.691 251.759 163.242 252.877 163.242 255.364Z" fill="white"/>
<path opacity="0.15" d="M173.18 261.124C173.18 263.569 174.63 266.429 176.452 267.465C178.233 268.501 179.682 267.341 179.682 264.895C179.682 262.45 178.233 259.591 176.411 258.555C174.63 257.477 173.18 258.638 173.18 261.124Z" fill="white"/>
<path opacity="0.15" d="M227.428 273.557V310.979L222.542 308.16V270.739L227.428 273.557Z" fill="white"/>
<path opacity="0.15" d="M238.112 279.773V317.195L233.226 314.377V276.955L238.112 279.773Z" fill="white"/>
<path opacity="0.3" d="M24.3083 18.1929L101.705 62.9085V206.421L24.3083 161.664V18.1929Z" fill="url(#paint10_linear_2_2009)"/>
<path d="M72.0963 70.1605C72.0963 77.3302 67.9552 80.7284 62.8616 77.7446C57.7679 74.7607 53.627 66.5551 53.627 59.3861C53.627 52.2166 57.7679 48.8183 62.8616 51.8021C67.9552 54.7859 72.0963 62.9915 72.0963 70.1605Z" fill="url(#paint11_linear_2_2009)"/>
<path d="M62.8616 83.505C54.6207 78.6982 47.8293 83.2148 46.6284 93.5754C46.4214 95.3573 47.7879 97.7612 49.4443 98.7143L76.3199 114.421C77.9764 115.374 79.3432 114.628 79.136 112.556C77.8934 100.745 71.0609 88.3124 62.8616 83.505Z" fill="url(#paint12_linear_2_2009)"/>
<path opacity="0.15" d="M39.8374 111.271L85.9691 137.918V143.554L39.8374 116.907V111.271Z" fill="white"/>
<path opacity="0.15" d="M44.517 125.154L81.0827 146.248V151.884L44.517 130.79V125.154Z" fill="white"/>
<path d="M53.8341 148.859L0 117.736V133.774L53.8341 164.897V148.859Z" fill="url(#paint13_linear_2_2009)"/>
<path opacity="0.2" d="M118.394 0L129.906 22.6272C131.48 25.7353 131.231 28.8435 129.326 29.5894C127.421 30.3354 124.606 28.3876 123.032 25.2795L122.908 24.9893V50.1031C122.908 52.9626 120.92 54.1229 118.436 52.7139C115.951 51.2634 113.963 47.8237 113.963 44.9643V19.8506L113.839 19.9749C112.265 21.2596 109.408 19.9335 107.544 16.9911C105.639 14.0488 105.391 10.6505 106.965 9.36584L118.394 0Z" fill="url(#paint14_linear_2_2009)"/>
<path opacity="0.2" d="M118.394 334.103L106.882 311.476C105.308 308.368 105.556 305.26 107.461 304.514C109.366 303.768 112.182 305.715 113.756 308.824L113.88 309.113V284C113.88 281.141 115.868 279.98 118.353 281.389C120.837 282.84 122.825 286.28 122.825 289.139V314.252L122.949 314.128C124.523 312.844 127.38 314.17 129.244 317.112C131.149 320.054 131.397 323.453 129.824 324.737L118.394 334.103Z" fill="url(#paint15_linear_2_2009)"/>
</g>
<defs>
<linearGradient id="paint0_linear_2_2009" x1="336.592" y1="65.6164" x2="208.365" y2="187.152" gradientUnits="userSpaceOnUse">
<stop stop-color="white"/>
<stop offset="1" stop-color="white" stop-opacity="0"/>
</linearGradient>
<linearGradient id="paint1_linear_2_2009" x1="315.882" y1="85.5089" x2="187.656" y2="207.045" gradientUnits="userSpaceOnUse">
<stop stop-color="white"/>
<stop offset="1" stop-color="white" stop-opacity="0"/>
</linearGradient>
<linearGradient id="paint2_linear_2_2009" x1="77.1075" y1="183.485" x2="63.1105" y2="183.485" gradientUnits="userSpaceOnUse">
<stop stop-color="#818CF8"/>
<stop offset="1" stop-color="#818CF8"/>
</linearGradient>
<linearGradient id="paint3_linear_2_2009" x1="118.104" y1="241.09" x2="104.107" y2="241.09" gradientUnits="userSpaceOnUse">
<stop stop-color="#818CF8"/>
<stop offset="1" stop-color="#818CF8"/>
</linearGradient>
<linearGradient id="paint4_linear_2_2009" x1="210.727" y1="112.593" x2="215.361" y2="228.928" gradientUnits="userSpaceOnUse">
<stop stop-color="white"/>
<stop offset="1" stop-color="white" stop-opacity="0"/>
</linearGradient>
<linearGradient id="paint5_linear_2_2009" x1="194.162" y1="120.881" x2="198.796" y2="237.216" gradientUnits="userSpaceOnUse">
<stop stop-color="white"/>
<stop offset="1" stop-color="white" stop-opacity="0"/>
</linearGradient>
<linearGradient id="paint6_linear_2_2009" x1="159.721" y1="158.951" x2="145.724" y2="158.951" gradientUnits="userSpaceOnUse">
<stop stop-color="#818CF8"/>
<stop offset="1" stop-color="#818CF8"/>
</linearGradient>
<linearGradient id="paint7_linear_2_2009" x1="210.718" y1="202.494" x2="215.352" y2="318.828" gradientUnits="userSpaceOnUse">
<stop stop-color="white"/>
<stop offset="1" stop-color="white" stop-opacity="0"/>
</linearGradient>
<linearGradient id="paint8_linear_2_2009" x1="194.153" y1="211.197" x2="198.787" y2="327.531" gradientUnits="userSpaceOnUse">
<stop stop-color="white"/>
<stop offset="1" stop-color="white" stop-opacity="0"/>
</linearGradient>
<linearGradient id="paint9_linear_2_2009" x1="159.721" y1="249.252" x2="145.724" y2="249.252" gradientUnits="userSpaceOnUse">
<stop stop-color="#818CF8"/>
<stop offset="1" stop-color="#818CF8"/>
</linearGradient>
<linearGradient id="paint10_linear_2_2009" x1="110" y1="30.8058" x2="41.2182" y2="149.882" gradientUnits="userSpaceOnUse">
<stop stop-color="white"/>
<stop offset="1" stop-color="white" stop-opacity="0"/>
</linearGradient>
<linearGradient id="paint11_linear_2_2009" x1="72.0963" y1="64.9427" x2="53.627" y2="64.9427" gradientUnits="userSpaceOnUse">
<stop stop-color="#818CF8"/>
<stop offset="1" stop-color="#818CF8"/>
</linearGradient>
<linearGradient id="paint12_linear_2_2009" x1="79.1566" y1="98.4063" x2="46.6075" y2="98.4063" gradientUnits="userSpaceOnUse">
<stop stop-color="#818CF8"/>
<stop offset="1" stop-color="#818CF8"/>
</linearGradient>
<linearGradient id="paint13_linear_2_2009" x1="53.8341" y1="141.6" x2="0" y2="141.6" gradientUnits="userSpaceOnUse">
<stop stop-color="#818CF8"/>
<stop offset="1" stop-color="#818CF8"/>
</linearGradient>
<linearGradient id="paint14_linear_2_2009" x1="126.586" y1="22.8244" x2="105.575" y2="34.5284" gradientUnits="userSpaceOnUse">
<stop stop-color="white"/>
<stop offset="1" stop-color="white" stop-opacity="0"/>
</linearGradient>
<linearGradient id="paint15_linear_2_2009" x1="110.18" y1="311.294" x2="131.191" y2="299.59" gradientUnits="userSpaceOnUse">
<stop stop-color="white"/>
<stop offset="1" stop-color="white" stop-opacity="0"/>
</linearGradient>
<clipPath id="clip0_2_2009">
<rect width="344" height="343.428" fill="white"/>
</clipPath>
</defs>
</svg>
